<svg xmlns="http://www.w3.org/2000/svg" version="1.1" xmlns:xlink="http://www.w3.org/1999/xlink" viewBox="0 0 19.14937975931329 5.746210479293582"><g transform="matrix(1,0,0,1,6.875586460555149,1.904930239646791)"><rect width="19.14937975931329" height="19.14937975931329" x="-6.875586460555149" y="-8.606514879656645" fill="#ffffff"></rect><g clip-path="url(#SvgjsClipPath1002)"><g clip-path="url(#SvgjsClipPath10006fe55ae0-ca93-4974-b952-99fa1d9d6030)"><path d=" M -0.6618493599448012 1.281206389607127 C -0.5192139195210004 0.9029541728871093 -0.43196160222347757 0.5060826244512024 -0.402794923121494 0.1028842698555259 C -0.8967280301141818 0.1336917740641268 -1.3800961019741713 0.25939712723065855 -1.826458888131584 0.4731242421057009 C -1.81519185429807 0.5342631853883366 -1.8054969647203913 0.5961882007988994 -1.7979856088313841 0.6580258748619132 C -1.4245674759517755 0.4664298948844128 -1.0188427167734089 0.345778605184218 -0.6014091474425314 0.3021972249569327 C -0.6388036595094846 0.6304674086067088 -0.7199351671146825 0.9522616395317369 -0.8426459493663305 1.2590216873302893 C -0.7820310541689679 1.2649608989634542 -0.7215035003191534 1.2724722548524618 -0.6612379705119782 1.281206389607127 Z M -4.681647539430965 1.011496308383128 C -4.7107062999329 0.9826286694161248 -4.75003871495014 0.9664810166055293 -4.790998906559345 0.9666028557441608 C -4.831902398380914 0.9665082849334379 -4.871147081315443 0.982765897976031 -4.900000908297544 1.0117583324257677 L -4.900000908297542 1.0117583324257677 C -4.928861018426093 1.040815127344064 -4.944980883363998 1.080156396159377 -4.944807019588964 1.1211096995541499 C -4.944882170602561 1.1620093490520707 -4.9286275294800275 1.2012468579900246 -4.899651542907351 1.2301117012923473 C -4.870797715925258 1.259104135742084 -4.83155303299073 1.2753617487846771 -4.790649541169161 1.2752671779739542 C -4.749689349559954 1.2753890171125857 -4.710356934542715 1.2592413643019942 -4.681298174040777 1.230373725334987 L -4.681298174040777 1.230373725334987 C -4.652331095128302 1.2014958185747306 -4.636051672991833 1.1622743536590616 -4.6360553560116236 1.12137172359679 C -4.635952675869784 1.0804152844489736 -4.652097438560448 1.0410899091791164 -4.680948808650598 1.0120203564684034 Z M -1.5130781331342709 1.011496308383128 C -1.484170335099991 1.0405353854608812 -1.4679890928768096 1.0798730850015033 -1.4680973391477563 1.1208476755115182 C -1.4680993529783253 1.1617320101428286 -1.4843422186092043 1.2009410939096785 -1.5132528158291354 1.2298496772494794 L -1.5132528158293654 1.2298496772497076 C -1.5422525015170452 1.2586989015505345 -1.581524138257361 1.274847398578152 -1.6224295002626556 1.2747431298886784 C -1.6633839092508742 1.2748357769714311 -1.7026821641309589 1.2585820187530286 -1.731606184695945 1.2295876532070675 C -1.7605255423241948 1.2006920047461245 -1.7767435817763815 1.1614669790943166 -1.7766743200300086 1.1205856514688746 C -1.7768539409168245 1.079614170938361 -1.7606975519924637 1.0402604765156025 -1.7317808673910378 1.011234284340484 L -1.731780867391035 1.011234284340492 C -1.702856846826049 0.9822399187945314 -1.6635585919459643 0.9659861605761284 -1.6226041829577458 0.9660788076588815 C -1.581698820952452 0.9659745389694079 -1.542427184212138 0.9821230359970254 -1.5134274985244582 1.0109722602978524 Z M -3.1074070912504808 0.4281434481191806 C -3.136462397132781 0.3992600720044823 -3.1757895201498223 0.3830831803481112 -3.216758458378863 0.38316265413266826 C -3.2576600283572144 0.38307779968973965 -3.2969011208818 0.3993339253589754 -3.325760460117058 0.42831813081427517 L -3.325760460117058 0.42831813081427517 C -3.354606683779355 0.45735545932147126 -3.370752586909534 0.4966522002083502 -3.370653912756027 0.537582156595108 C -3.3707584631945453 0.5785304512514613 -3.3544653736671486 0.6178162983937681 -3.325411094726873 0.6466714996808547 C -3.296551755491615 0.6756557051361503 -3.257310662967029 0.691911830805386 -3.2164090929886777 0.6918269763624614 C -3.1754401547596354 0.6919064501470147 -3.1361130317425943 0.6757295584906475 -3.1070577258602934 0.646846182375949 L -3.1070577258602934 0.646846182375949 C -3.078068442911832 0.6179544976312394 -3.0618135027791746 0.578684826014817 -3.061902249178687 0.5377568392902026 C -3.061732350794528 0.4968300076795278 -3.0778533679786166 0.457517351739386 -3.1067083604701025 0.4284928135093695 Z M -3.216758458378863 2.917371853198174 C -4.346256764851899 3.133367005680996 -5.386317531437188 3.01467011436512 -6.033342234062631 1.4238348101507778 C -5.385793483351906 1.2862721877648315 -4.886637682122906 1.3198986065702853 -4.491592767169495 1.4734446955572604 C -4.595004922664705 1.0623289726552683 -4.566444302016956 0.5629111473836268 -4.34966307740622 -0.06254024239779943 C -3.7592355679909906 0.2681340994137489 -3.4032322353909197 0.6310373984699986 -3.2102951986604142 1.016387423845738 C -3.014650580155958 0.6320854946405616 -2.656201689824584 0.2718897773582545 -2.063590646720692 -0.05476686246614815 C -1.853447364523496 0.565356705114938 -1.8264588881315875 1.060582145704331 -1.9284735820660526 1.468378897399556 C -1.5354375181062112 1.319199875789907 -1.0403867602119048 1.2878443320206703 -0.4000000000000048 1.4238348101507778 C -1.0472867266680899 3.014932138407759 -2.0873474932533744 3.133629029723635 -3.2167584583788646 2.917371853198174 Z M -2.1424598835552957 1.5659391826091453 L -3.082252783157048 2.628534016861465 L -3.111774158627809 2.647399747931535 C -3.1160538846575943 2.6318529880682364 -3.120508293382472 2.616306228204938 -3.124263971326978 2.600672126994086 L -3.1164032500477816 1.2400686149126656 C -2.9417205549545176 0.7938416702969264 -2.5805640828491985 0.46552554486914 -2.165867364697791 0.20944071386241614 C -2.036864194371415 0.6624802835867931 -1.990485938824155 1.1313286372171083 -2.1424598835552935 1.5660265239566904 Z M -3.216758458378863 2.917371853198174 Z M -2.9460002809843067 2.7502005139939234 C -2.9510660791420094 2.7606814756995215 -2.956219218647261 2.7711624374051156 -2.9611976754574205 2.781730740458255 C -2.611741979508166 2.844723003218346 -2.253141436931439 2.836195506680151 -1.9070749519171306 2.756663773712376 C -1.2869513843360458 2.5912392614590547 -0.9081519600263048 2.1088529989590135 -0.6508443501539274 1.5565063170741142 C -1.115762343144648 1.48165478222665 -1.587056254506269 1.4904762583288642 -2.000966900529755 1.6924094538566727 L -2.9460002809843067 2.7502005139939234 Z M -3.3057592915288816 1.2391952014372012 L -3.3071567530896258 2.5998860548661704 C -3.311349137771866 2.615432814729469 -3.315599750019133 2.630979574592772 -3.3199085898314324 2.6465263344560706 L -3.3528362778565137 2.6250403629596026 L -4.2765583695096865 1.5737999038883457 C -4.432025968142691 1.1338615362959645 -4.382678106778844 0.6595980191177557 -4.249133186380046 0.2025407474062333 C -3.836270636527118 0.4615951842295438 -3.4773850394580097 0.7923568673886332 -3.305846632876425 1.2396319081749354 Z M -3.489962193504728 2.746095470659229 L -4.417964011187683 1.699134737617757 C -4.835280969765489 1.4902142342862166 -5.312164727370096 1.4802573206659022 -5.782497883908706 1.556069610336376 C -5.525277615383878 2.1084162922212752 -5.146390849726591 2.5908025547213165 -4.526441964840601 2.756227066974638 C -4.180346208165965 2.8357610605417465 -3.8217166938521303 2.8442885394653623 -3.472231899952764 2.781294033720513 C -3.4779964288908385 2.7694156104541747 -3.48367361648137 2.757624528535382 -3.489700169462086 2.745833446616585 Z M -2.5050138172213665 0.10969689496416346 C -2.6726719756686603 -0.3192987591043076 -2.9135900826594887 -0.7159033954900897 -3.2170204824215047 -1.062423989111637 C -3.5167611265381775 -0.7196404512921246 -3.7557299652931047 -0.32816282211796033 -3.923611984073749 0.09511088992387062 C -3.8740020986672645 0.13004742894252685 -3.825440309431339 0.16646877086946854 -3.7779266163659706 0.20437491570470345 C -3.645615193435095 -0.15347224493144274 -3.4561915866279698 -0.487514964814762 -3.2170204824215025 -0.7847658452608999 C -2.9744300352881035 -0.48366596207198975 -2.7832563398606065 -0.14455251129129176 -2.6512232330144245 0.21887357939744723 C -2.603476629688934 0.1811421172572989 -2.554740157757912 0.1447498891128669 -2.5050138172213643 0.10969689496415547 Z M -4.593345437061322 0.4803735739520687 C -4.60499095006754 0.5418618826248973 -4.61459849829767 0.6035831015578481 -4.622168081751711 0.6655372307509249 C -4.9989463685997055 0.46944936132210957 -5.409361040983716 0.34626569395024864 -5.831845745272555 0.3024592489995843 C -5.794461552281658 0.6307313124547698 -5.713329702435216 0.9525269008210917 -5.590608943348755 1.259283711372945 C -5.651136497198575 1.2652229230060943 -5.711751392395937 1.2727342788951055 -5.771929580855565 1.2814684136497707 C -5.914515152578522 0.9031970047918882 -6.001794344571079 0.5063370185527365 -6.03107135902642 0.10314629389816976 C -5.5315913537856245 0.13373249001854792 -5.042928674880763 0.26179540350166297 -4.592646706280948 0.48011154990942484 Z" fill="#c84449" transform="matrix(1,0,0,1,0,0)" fill-rule="evenodd"></path></g></g><g><path d=" M 0.23925000000000002 1.0252499999999998 Q 0.135 0.9854999999999998 0.0765 0.9224999999999999 L 0.111 0.8654999999999999 Q 0.1665 0.9239999999999999 0.26025 0.9607499999999999 Q 0.354 0.9974999999999998 0.4575 0.9974999999999998 Q 0.6075 0.9974999999999998 0.684 0.9404999999999999 Q 0.7605000000000001 0.8834999999999998 0.7605000000000001 0.7919999999999998 Q 0.7605000000000001 0.7214999999999998 0.72 0.6794999999999999 Q 0.6795 0.6375 0.6195 0.6149999999999999 Q 0.5595 0.5924999999999998 0.4575 0.5684999999999999 Q 0.342 0.5399999999999999 0.27225 0.5129999999999999 Q 0.2025 0.4859999999999999 0.15375 0.42974999999999985 Q 0.105 0.37349999999999983 0.105 0.2789999999999999 Q 0.105 0.2024999999999999 0.1455 0.13874999999999982 Q 0.186 0.07499999999999984 0.26925 0.03749999999999987 Q 0.3525 -2.220446049250313e-16 0.47700000000000004 -2.220446049250313e-16 Q 0.5640000000000001 -2.220446049250313e-16 0.648 0.025499999999999856 Q 0.732 0.050999999999999934 0.7935 0.09449999999999992 L 0.765 0.15599999999999992 Q 0.7020000000000001 0.11249999999999982 0.62625 0.08999999999999986 Q 0.5505 0.0674999999999999 0.47700000000000004 0.0674999999999999 Q 0.3315 0.0674999999999999 0.2565 0.1259999999999999 Q 0.1815 0.1844999999999999 0.1815 0.27749999999999986 Q 0.1815 0.34799999999999986 0.222 0.3899999999999999 Q 0.2625 0.43199999999999983 0.3225 0.4544999999999999 Q 0.3825 0.47699999999999987 0.486 0.5024999999999998 Q 0.6015 0.5309999999999999 0.6705 0.5579999999999998 Q 0.7395 0.5849999999999999 0.78825 0.6397499999999998 Q 0.837 0.6944999999999999 0.837 0.7874999999999999 Q 0.837 0.8639999999999999 0.7957500000000001 0.9269999999999998 Q 0.7545000000000001 0.9899999999999999 0.669 1.0274999999999999 Q 0.5835 1.065 0.459 1.065 Q 0.3435 1.065 0.23925000000000002 1.0252499999999998 M 1.09651318359375 0.00749999999999984 L 1.17301318359375 0.00749999999999984 L 1.17301318359375 1.0574999999999999 L 1.09651318359375 1.0574999999999999 L 1.09651318359375 0.00749999999999984 M 2.531987548828125 1.0574999999999999 L 2.530487548828125 0.15899999999999992 L 2.090987548828125 0.9179999999999999 L 2.053487548828125 0.9179999999999999 L 1.613987548828125 0.1619999999999998 L 1.613987548828125 1.0574999999999999 L 1.538987548828125 1.0574999999999999 L 1.538987548828125 0.00749999999999984 L 1.603487548828125 0.00749999999999984 L 2.072987548828125 0.8189999999999998 L 2.542487548828125 0.00749999999999984 L 2.6054875488281253 0.00749999999999984 L 2.6069875488281253 1.0574999999999999 L 2.531987548828125 1.0574999999999999 M 4.008006591796875 0.7619999999999999 L 3.399006591796875 0.7619999999999999 L 3.265506591796875 1.0574999999999999 L 3.183006591796875 1.0574999999999999 L 3.666006591796875 0.00749999999999984 L 3.742506591796875 0.00749999999999984 L 4.225506591796875 1.0574999999999999 L 4.143006591796875 1.0574999999999999 L 4.008006591796875 0.7619999999999999 M 3.9795065917968753 0.6974999999999999 L 3.703506591796875 0.09149999999999991 L 3.429006591796875 0.6974999999999999 L 3.9795065917968753 0.6974999999999999 M 5.4090322265625 1.0574999999999999 L 5.4075322265625 0.15899999999999992 L 4.9680322265625 0.9179999999999999 L 4.9305322265625 0.9179999999999999 L 4.4910322265625 0.1619999999999998 L 4.4910322265625 1.0574999999999999 L 4.4160322265625 1.0574999999999999 L 4.4160322265625 0.00749999999999984 L 4.4805322265625 0.00749999999999984 L 4.9500322265625 0.8189999999999998 L 5.4195322265625006 0.00749999999999984 L 5.4825322265625 0.00749999999999984 L 5.4840322265625 1.0574999999999999 L 5.4090322265625 1.0574999999999999 M 6.016522705078125 0.9952499999999999 Q 5.892022705078125 0.9254999999999999 5.820772705078125 0.8039999999999998 Q 5.749522705078125 0.6824999999999999 5.749522705078125 0.5324999999999999 Q 5.749522705078125 0.38249999999999984 5.820772705078125 0.2609999999999999 Q 5.892022705078125 0.13949999999999985 6.016522705078125 0.06974999999999987 Q 6.141022705078125 -2.220446049250313e-16 6.295522705078125 -2.220446049250313e-16 Q 6.450022705078125 -2.220446049250313e-16 6.574522705078125 0.06899999999999984 Q 6.699022705078125 0.1379999999999999 6.770272705078125 0.25949999999999984 Q 6.841522705078125 0.3809999999999999 6.841522705078125 0.5324999999999999 Q 6.841522705078125 0.6839999999999999 6.770272705078125 0.8054999999999999 Q 6.699022705078125 0.9269999999999998 6.574522705078125 0.9959999999999999 Q 6.450022705078125 1.065 6.295522705078125 1.065 Q 6.141022705078125 1.065 6.016522705078125 0.9952499999999999 M 6.534022705078125 0.9344999999999999 Q 6.640522705078125 0.8744999999999998 6.702022705078125 0.7687499999999998 Q 6.763522705078125 0.6629999999999998 6.763522705078125 0.5324999999999999 Q 6.763522705078125 0.4019999999999999 6.702022705078125 0.2962499999999999 Q 6.640522705078125 0.1904999999999999 6.534022705078125 0.13049999999999984 Q 6.427522705078125 0.0704999999999999 6.295522705078125 0.0704999999999999 Q 6.163522705078125 0.0704999999999999 6.056272705078125 0.13049999999999984 Q 5.949022705078125 0.1904999999999999 5.887522705078125 0.2962499999999999 Q 5.826022705078125 0.4019999999999999 5.826022705078125 0.5324999999999999 Q 5.826022705078125 0.6629999999999998 5.887522705078125 0.7687499999999998 Q 5.949022705078125 0.8744999999999998 6.056272705078125 0.9344999999999999 Q 6.163522705078125 0.9944999999999999 6.295522705078125 0.9944999999999999 Q 6.427522705078125 0.9944999999999999 6.534022705078125 0.9344999999999999 M 7.836041748046875 1.0574999999999999 L 7.585541748046875 0.7064999999999999 Q 7.530041748046875 0.7139999999999999 7.483541748046875 0.7139999999999999 L 7.183541748046875 0.7139999999999999 L 7.183541748046875 1.0574999999999999 L 7.107041748046875 1.0574999999999999 L 7.107041748046875 0.00749999999999984 L 7.483541748046875 0.00749999999999984 Q 7.681541748046875 0.00749999999999984 7.794041748046875 0.10124999999999984 Q 7.906541748046875 0.19499999999999984 7.906541748046875 0.3614999999999998 Q 7.906541748046875 0.4859999999999999 7.842791748046875 0.5707499999999999 Q 7.779041748046875 0.6554999999999999 7.660541748046875 0.69 L 7.923041748046875 1.0574999999999999 L 7.836041748046875 1.0574999999999999 M 7.483541748046875 0.6464999999999999 Q 7.651541748046875 0.6464999999999999 7.740041748046875 0.5722499999999999 Q 7.828541748046875 0.4979999999999999 7.828541748046875 0.3614999999999998 Q 7.828541748046875 0.22499999999999987 7.740041748046875 0.15074999999999983 Q 7.651541748046875 0.0764999999999999 7.483541748046875 0.0764999999999999 L 7.183541748046875 0.0764999999999999 L 7.183541748046875 0.6464999999999999 L 7.483541748046875 0.6464999999999999 M 8.353497802734376 0.9952499999999999 Q 8.228997802734375 0.9254999999999999 8.157747802734375 0.8039999999999998 Q 8.086497802734375 0.6824999999999999 8.086497802734375 0.5324999999999999 Q 8.086497802734375 0.38249999999999984 8.157747802734375 0.2609999999999999 Q 8.228997802734375 0.13949999999999985 8.353497802734376 0.06974999999999987 Q 8.477997802734375 -2.220446049250313e-16 8.632497802734376 -2.220446049250313e-16 Q 8.786997802734374 -2.220446049250313e-16 8.911497802734376 0.06899999999999984 Q 9.035997802734375 0.1379999999999999 9.107247802734374 0.25949999999999984 Q 9.178497802734375 0.3809999999999999 9.178497802734375 0.5324999999999999 Q 9.178497802734375 0.6839999999999999 9.107247802734374 0.8054999999999999 Q 9.035997802734375 0.9269999999999998 8.911497802734376 0.9959999999999999 Q 8.786997802734374 1.065 8.632497802734376 1.065 Q 8.477997802734375 1.065 8.353497802734376 0.9952499999999999 M 8.870997802734376 0.9344999999999999 Q 8.977497802734375 0.8744999999999998 9.038997802734375 0.7687499999999998 Q 9.100497802734376 0.6629999999999998 9.100497802734376 0.5324999999999999 Q 9.100497802734376 0.4019999999999999 9.038997802734375 0.2962499999999999 Q 8.977497802734375 0.1904999999999999 8.870997802734376 0.13049999999999984 Q 8.764497802734375 0.0704999999999999 8.632497802734376 0.0704999999999999 Q 8.500497802734374 0.0704999999999999 8.393247802734376 0.13049999999999984 Q 8.285997802734375 0.1904999999999999 8.224497802734374 0.2962499999999999 Q 8.162997802734376 0.4019999999999999 8.162997802734376 0.5324999999999999 Q 8.162997802734376 0.6629999999999998 8.224497802734374 0.7687499999999998 Q 8.285997802734375 0.8744999999999998 8.393247802734376 0.9344999999999999 Q 8.500497802734374 0.9944999999999999 8.632497802734376 0.9944999999999999 Q 8.764497802734375 0.9944999999999999 8.870997802734376 0.9344999999999999 M 9.500266845703125 1.0252499999999998 Q 9.396016845703125 0.9854999999999998 9.337516845703124 0.9224999999999999 L 9.372016845703126 0.8654999999999999 Q 9.427516845703124 0.9239999999999999 9.521266845703124 0.9607499999999999 Q 9.615016845703124 0.9974999999999998 9.718516845703125 0.9974999999999998 Q 9.868516845703125 0.9974999999999998 9.945016845703124 0.9404999999999999 Q 10.021516845703125 0.8834999999999998 10.021516845703125 0.7919999999999998 Q 10.021516845703125 0.7214999999999998 9.981016845703126 0.6794999999999999 Q 9.940516845703126 0.6375 9.880516845703125 0.6149999999999999 Q 9.820516845703125 0.5924999999999998 9.718516845703125 0.5684999999999999 Q 9.603016845703126 0.5399999999999999 9.533266845703125 0.5129999999999999 Q 9.463516845703126 0.4859999999999999 9.414766845703125 0.42974999999999985 Q 9.366016845703125 0.37349999999999983 9.366016845703125 0.2789999999999999 Q 9.366016845703125 0.2024999999999999 9.406516845703125 0.13874999999999982 Q 9.447016845703125 0.07499999999999984 9.530266845703125 0.03749999999999987 Q 9.613516845703124 -2.220446049250313e-16 9.738016845703125 -2.220446049250313e-16 Q 9.825016845703125 -2.220446049250313e-16 9.909016845703125 0.025499999999999856 Q 9.993016845703124 0.050999999999999934 10.054516845703125 0.09449999999999992 L 10.026016845703126 0.15599999999999992 Q 9.963016845703125 0.11249999999999982 9.887266845703126 0.08999999999999986 Q 9.811516845703125 0.0674999999999999 9.738016845703125 0.0674999999999999 Q 9.592516845703125 0.0674999999999999 9.517516845703126 0.1259999999999999 Q 9.442516845703125 0.1844999999999999 9.442516845703125 0.27749999999999986 Q 9.442516845703125 0.34799999999999986 9.483016845703125 0.3899999999999999 Q 9.523516845703124 0.43199999999999983 9.583516845703125 0.4544999999999999 Q 9.643516845703125 0.47699999999999987 9.747016845703126 0.5024999999999998 Q 9.862516845703125 0.5309999999999999 9.931516845703126 0.5579999999999998 Q 10.000516845703125 0.5849999999999999 10.049266845703125 0.6397499999999998 Q 10.098016845703125 0.6944999999999999 10.098016845703125 0.7874999999999999 Q 10.098016845703125 0.8639999999999999 10.056766845703125 0.9269999999999998 Q 10.015516845703125 0.9899999999999999 9.930016845703125 1.0274999999999999 Q 9.844516845703126 1.065 9.720016845703125 1.065 Q 9.604516845703126 1.065 9.500266845703125 1.0252499999999998 M 10.524030029296876 0.9952499999999999 Q 10.399530029296875 0.9254999999999999 10.328280029296875 0.8039999999999998 Q 10.257030029296875 0.6824999999999999 10.257030029296875 0.5324999999999999 Q 10.257030029296875 0.38249999999999984 10.328280029296875 0.2609999999999999 Q 10.399530029296875 0.13949999999999985 10.524030029296876 0.06974999999999987 Q 10.648530029296875 -2.220446049250313e-16 10.803030029296876 -2.220446049250313e-16 Q 10.957530029296874 -2.220446049250313e-16 11.082030029296876 0.06899999999999984 Q 11.206530029296875 0.1379999999999999 11.277780029296874 0.25949999999999984 Q 11.349030029296875 0.3809999999999999 11.349030029296875 0.5324999999999999 Q 11.349030029296875 0.6839999999999999 11.277780029296874 0.8054999999999999 Q 11.206530029296875 0.9269999999999998 11.082030029296876 0.9959999999999999 Q 10.957530029296874 1.065 10.803030029296876 1.065 Q 10.648530029296875 1.065 10.524030029296876 0.9952499999999999 M 11.041530029296876 0.9344999999999999 Q 11.148030029296875 0.8744999999999998 11.209530029296875 0.7687499999999998 Q 11.271030029296876 0.6629999999999998 11.271030029296876 0.5324999999999999 Q 11.271030029296876 0.4019999999999999 11.209530029296875 0.2962499999999999 Q 11.148030029296875 0.1904999999999999 11.041530029296876 0.13049999999999984 Q 10.935030029296875 0.0704999999999999 10.803030029296876 0.0704999999999999 Q 10.671030029296874 0.0704999999999999 10.563780029296876 0.13049999999999984 Q 10.456530029296875 0.1904999999999999 10.395030029296874 0.2962499999999999 Q 10.333530029296876 0.4019999999999999 10.333530029296876 0.5324999999999999 Q 10.333530029296876 0.6629999999999998 10.395030029296874 0.7687499999999998 Q 10.456530029296875 0.8744999999999998 10.563780029296876 0.9344999999999999 Q 10.671030029296874 0.9944999999999999 10.803030029296876 0.9944999999999999 Q 10.935030029296875 0.9944999999999999 11.041530029296876 0.9344999999999999" fill="#382d5e" fill-rule="nonzero"></path></g><g><path d=" M 0.173625 1.9059749999999998 Q 0.11025 1.8710999999999998 0.074625 1.8103499999999997 Q 0.039 1.7495999999999998 0.039 1.6738499999999998 Q 0.039 1.5980999999999999 0.074625 1.5373499999999998 Q 0.11025 1.4766 0.173625 1.4417249999999997 Q 0.23700000000000002 1.40685 0.315 1.40685 Q 0.393 1.40685 0.455625 1.44135 Q 0.51825 1.4758499999999999 0.55425 1.5369749999999998 Q 0.59025 1.5980999999999999 0.59025 1.6738499999999998 Q 0.59025 1.7495999999999998 0.55425 1.8107249999999997 Q 0.51825 1.8718499999999998 0.455625 1.9063499999999998 Q 0.393 1.9408499999999997 0.315 1.9408499999999997 Q 0.23700000000000002 1.9408499999999997 0.173625 1.9059749999999998 M 0.4275 1.863225 Q 0.47775 1.8350999999999997 0.50625 1.7852249999999998 Q 0.5347500000000001 1.7353499999999997 0.5347500000000001 1.6738499999999998 Q 0.5347500000000001 1.6123499999999997 0.50625 1.5624749999999998 Q 0.47775 1.5125999999999997 0.4275 1.4844749999999998 Q 0.37725000000000003 1.4563499999999998 0.315 1.4563499999999998 Q 0.25275000000000003 1.4563499999999998 0.202125 1.4844749999999998 Q 0.1515 1.5125999999999997 0.122625 1.5624749999999998 Q 0.09375 1.6123499999999997 0.09375 1.6738499999999998 Q 0.09375 1.7353499999999997 0.122625 1.7852249999999998 Q 0.1515 1.8350999999999997 0.202125 1.863225 Q 0.25275000000000003 1.8913499999999999 0.315 1.8913499999999999 Q 0.37725000000000003 1.8913499999999999 0.4275 1.863225 M 1.0008848876953125 1.9063499999999998 Q 0.9382598876953125 1.8718499999999998 0.9026348876953125 1.8107249999999997 Q 0.8670098876953126 1.7495999999999998 0.8670098876953126 1.6738499999999998 Q 0.8670098876953126 1.5980999999999999 0.9026348876953125 1.5369749999999998 Q 0.9382598876953125 1.4758499999999999 1.0012598876953125 1.44135 Q 1.0642598876953127 1.40685 1.1422598876953125 1.40685 Q 1.2007598876953125 1.40685 1.2502598876953126 1.4263499999999998 Q 1.2997598876953127 1.4458499999999999 1.3342598876953127 1.4833499999999997 L 1.2990098876953127 1.5185999999999997 Q 1.2375098876953126 1.4563499999999998 1.1437598876953126 1.4563499999999998 Q 1.0815098876953126 1.4563499999999998 1.0305098876953127 1.4848499999999998 Q 0.9795098876953126 1.5133499999999998 0.9506348876953126 1.5628499999999999 Q 0.9217598876953126 1.6123499999999997 0.9217598876953126 1.6738499999999998 Q 0.9217598876953126 1.7353499999999997 0.9506348876953126 1.7848499999999998 Q 0.9795098876953126 1.8343499999999997 1.0305098876953127 1.86285 Q 1.0815098876953126 1.8913499999999999 1.1437598876953126 1.8913499999999999 Q 1.2382598876953126 1.8913499999999999 1.2990098876953127 1.8283499999999997 L 1.3342598876953127 1.8635999999999997 Q 1.2997598876953127 1.9010999999999998 1.2498848876953126 1.9209749999999999 Q 1.2000098876953125 1.9408499999999997 1.1415098876953125 1.9408499999999997 Q 1.0635098876953126 1.9408499999999997 1.0008848876953125 1.9063499999999998 M 1.76962646484375 1.7960999999999998 L 1.47712646484375 1.7960999999999998 L 1.4141264648437502 1.9363499999999998 L 1.3563764648437502 1.9363499999999998 L 1.5963764648437502 1.4113499999999997 L 1.6511264648437503 1.4113499999999997 L 1.89112646484375 1.9363499999999998 L 1.83262646484375 1.9363499999999998 L 1.76962646484375 1.7960999999999998 M 1.7493764648437502 1.7510999999999999 L 1.62337646484375 1.4690999999999999 L 1.4973764648437502 1.7510999999999999 L 1.7493764648437502 1.7510999999999999 M 2.5244864501953126 1.4113499999999997 L 2.5244864501953126 1.9363499999999998 L 2.471236450195313 1.9363499999999998 L 2.471236450195313 1.5163499999999999 L 2.2649864501953125 1.8695999999999997 L 2.238736450195313 1.8695999999999997 L 2.0324864501953126 1.5185999999999997 L 2.0324864501953126 1.9363499999999998 L 1.9792364501953126 1.9363499999999998 L 1.9792364501953126 1.4113499999999997 L 2.0249864501953128 1.4113499999999997 L 2.2529864501953125 1.8005999999999998 L 2.4787364501953126 1.4113499999999997 L 2.5244864501953126 1.4113499999999997 M 2.6966242675781253 1.4113499999999997 L 2.7521242675781252 1.4113499999999997 L 2.7521242675781252 1.9363499999999998 L 2.6966242675781253 1.9363499999999998 L 2.6966242675781253 1.4113499999999997 M 3.363000732421875 1.4113499999999997 L 3.363000732421875 1.9363499999999998 L 3.317250732421875 1.9363499999999998 L 2.9797507324218753 1.5103499999999999 L 2.9797507324218753 1.9363499999999998 L 2.9242507324218754 1.9363499999999998 L 2.9242507324218754 1.4113499999999997 L 2.9700007324218753 1.4113499999999997 L 3.3082507324218753 1.8373499999999998 L 3.3082507324218753 1.4113499999999997 L 3.363000732421875 1.4113499999999997 M 3.973866943359375 1.4113499999999997 L 3.973866943359375 1.9363499999999998 L 3.9191169433593753 1.9363499999999998 L 3.9191169433593753 1.6940999999999997 L 3.5906169433593753 1.6940999999999997 L 3.5906169433593753 1.9363499999999998 L 3.5351169433593754 1.9363499999999998 L 3.5351169433593754 1.4113499999999997 L 3.5906169433593753 1.4113499999999997 L 3.5906169433593753 1.6453499999999999 L 3.9191169433593753 1.6453499999999999 L 3.9191169433593753 1.4113499999999997 L 3.973866943359375 1.4113499999999997 M 4.234108154296876 1.9059749999999998 Q 4.170733154296875 1.8710999999999998 4.1351081542968755 1.8103499999999997 Q 4.099483154296875 1.7495999999999998 4.099483154296875 1.6738499999999998 Q 4.099483154296875 1.5980999999999999 4.1351081542968755 1.5373499999999998 Q 4.170733154296875 1.4766 4.234108154296876 1.4417249999999997 Q 4.297483154296875 1.40685 4.375483154296876 1.40685 Q 4.453483154296875 1.40685 4.516108154296876 1.44135 Q 4.578733154296875 1.4758499999999999 4.614733154296875 1.5369749999999998 Q 4.6507331542968755 1.5980999999999999 4.6507331542968755 1.6738499999999998 Q 4.6507331542968755 1.7495999999999998 4.614733154296875 1.8107249999999997 Q 4.578733154296875 1.8718499999999998 4.516108154296876 1.9063499999999998 Q 4.453483154296875 1.9408499999999997 4.375483154296876 1.9408499999999997 Q 4.297483154296875 1.9408499999999997 4.234108154296876 1.9059749999999998 M 4.4879831542968756 1.863225 Q 4.538233154296876 1.8350999999999997 4.566733154296875 1.7852249999999998 Q 4.595233154296875 1.7353499999999997 4.595233154296875 1.6738499999999998 Q 4.595233154296875 1.6123499999999997 4.566733154296875 1.5624749999999998 Q 4.538233154296876 1.5125999999999997 4.4879831542968756 1.4844749999999998 Q 4.437733154296875 1.4563499999999998 4.375483154296876 1.4563499999999998 Q 4.313233154296875 1.4563499999999998 4.262608154296875 1.4844749999999998 Q 4.211983154296876 1.5125999999999997 4.1831081542968755 1.5624749999999998 Q 4.154233154296875 1.6123499999999997 4.154233154296875 1.6738499999999998 Q 4.154233154296875 1.7353499999999997 4.1831081542968755 1.7852249999999998 Q 4.211983154296876 1.8350999999999997 4.262608154296875 1.863225 Q 4.313233154296875 1.8913499999999999 4.375483154296876 1.8913499999999999 Q 4.437733154296875 1.8913499999999999 4.4879831542968756 1.863225" fill="#c84449" fill-rule="nonzero"></path></g></g><defs><clipPath id="SvgjsClipPath1002"><path d=" M -6.033342234062631 -1.0626860131542726 h 5.6333422340626305 v 4.061722026308545 h -5.6333422340626305 Z"></path></clipPath><clipPath id="SvgjsClipPath10006fe55ae0-ca93-4974-b952-99fa1d9d6030"><path d=" M -6.033342234062631 -1.0626860131542724 L -0.40000000000000036 -1.0626860131542724 L -0.40000000000000036 2.9990360131542726 L -6.033342234062631 2.9990360131542726 Z"></path></clipPath></defs></svg>